<svg id="svg" version="1.1" xmlns="http://www.w3.org/2000/svg" xmlns:xlink="http://www.w3.org/1999/xlink" width="400" height="400" viewBox="0, 0, 400,400"><g id="svgg"><path id="path0" d="M0.000 200.000 L 0.000 400.000 200.000 400.000 L 400.000 400.000 400.000 200.000 L 400.000 0.000 200.000 0.000 L 0.000 0.000 0.000 200.000 M48.880 138.852 C 63.891 142.054,64.124 155.920,49.300 163.842 C 47.705 164.695,46.400 165.551,46.400 165.745 C 46.400 166.419,56.122 184.223,58.518 187.936 C 61.435 192.456,61.489 192.386,55.074 192.394 C 50.278 192.400,48.800 192.062,48.800 190.960 C 48.800 189.505,38.943 170.381,38.037 170.079 C 37.006 169.735,32.580 174.923,31.820 177.365 C 31.014 179.957,31.127 186.994,32.026 190.155 C 32.625 192.264,32.335 192.388,26.800 192.388 C 21.062 192.388,21.030 192.370,21.689 189.570 C 22.392 186.583,22.423 143.445,21.724 140.822 C 21.463 139.843,21.339 138.898,21.448 138.722 C 21.763 138.213,46.435 138.330,48.880 138.852 M77.399 139.700 C 77.086 141.098,76.674 163.579,76.877 168.191 L 77.000 170.982 79.994 167.191 C 96.918 145.762,97.147 145.420,97.564 141.065 L 97.800 138.600 102.500 138.487 C 108.110 138.353,108.092 138.320,104.547 142.140 C 102.092 144.786,92.741 156.424,91.593 158.263 C 91.149 158.973,91.527 159.889,94.796 166.034 C 96.834 169.865,99.313 174.530,100.305 176.400 C 103.420 182.276,104.465 184.095,106.931 187.936 C 109.836 192.462,109.895 192.388,103.400 192.388 C 97.851 192.388,97.727 192.338,96.849 189.746 C 96.248 187.970,85.910 167.856,85.190 167.061 C 85.021 166.875,83.049 169.030,80.808 171.849 L 76.733 176.975 76.950 183.188 C 77.070 186.604,77.220 190.030,77.284 190.800 L 77.400 192.200 72.456 192.313 C 66.767 192.442,66.206 192.236,66.929 190.275 C 67.490 188.757,67.609 143.903,67.062 140.500 L 66.725 138.400 72.208 138.400 L 77.691 138.400 77.399 139.700 M157.835 138.857 C 157.990 139.108,158.206 140.998,158.313 143.057 C 158.543 147.454,158.275 147.680,155.957 145.046 C 153.734 142.520,151.940 141.910,146.082 141.688 L 141.165 141.502 141.338 165.651 C 141.434 178.933,141.577 190.340,141.656 191.000 L 141.800 192.200 136.600 192.200 L 131.400 192.200 131.599 190.200 C 131.709 189.100,131.799 177.760,131.799 165.000 L 131.800 141.800 127.200 141.800 C 121.513 141.800,119.528 142.450,117.226 145.065 C 114.881 147.730,114.330 146.570,115.059 140.500 L 115.311 138.400 136.432 138.400 C 151.832 138.400,157.629 138.524,157.835 138.857 M31.500 141.827 C 31.183 142.151,31.068 170.800,31.384 170.800 C 31.485 170.800,32.430 169.877,33.484 168.749 C 34.538 167.620,38.085 164.785,41.366 162.449 C 51.992 154.882,54.357 148.372,48.029 144.108 C 45.296 142.266,32.764 140.537,31.500 141.827 M253.600 152.353 C 253.600 157.431,253.350 157.185,258.527 157.195 L 261.653 157.200 261.527 158.300 C 261.400 159.398,261.392 159.400,257.600 159.600 L 253.800 159.800 253.800 172.671 C 253.800 188.663,254.289 189.929,259.269 186.833 C 262.429 184.869,264.000 185.730,261.497 188.055 C 256.359 192.825,250.636 193.185,248.116 188.898 L 247.000 187.000 246.800 173.400 L 246.600 159.800 244.720 159.679 C 242.091 159.510,241.485 156.800,244.077 156.800 C 246.256 156.800,249.520 153.276,250.837 149.500 C 251.274 148.249,251.546 148.000,252.480 148.000 L 253.600 148.000 253.600 152.353 M186.118 157.431 C 200.303 161.106,201.839 176.166,188.400 179.799 C 181.522 181.658,180.504 182.003,179.447 182.835 C 175.351 186.057,184.239 188.938,189.833 186.202 C 191.756 185.261,195.200 182.015,195.200 181.144 C 195.200 180.461,196.782 180.819,197.198 181.596 C 198.159 183.392,194.154 188.091,189.869 190.196 C 181.149 194.478,171.224 191.695,166.488 183.639 C 158.466 169.996,170.843 153.472,186.118 157.431 M225.400 157.344 C 229.220 158.364,234.800 162.242,234.800 163.876 C 234.800 164.697,230.491 170.400,229.871 170.400 C 229.583 170.400,228.924 169.635,228.407 168.700 C 221.123 155.527,206.061 160.606,210.238 174.827 C 213.870 187.192,226.938 191.518,233.686 182.590 C 235.487 180.206,235.707 180.104,236.370 181.343 C 237.103 182.714,236.652 183.702,233.986 186.552 C 223.870 197.365,206.131 191.925,203.540 177.214 C 201.408 165.114,213.464 154.155,225.400 157.344 M278.195 158.100 C 277.825 159.727,277.468 182.550,277.785 184.255 C 278.644 188.862,285.169 188.704,293.500 183.875 L 294.800 183.121 294.792 172.660 C 294.786 165.606,294.613 161.386,294.259 159.699 C 293.607 156.587,293.280 156.800,298.709 156.800 L 303.284 156.800 303.007 158.500 C 302.376 162.381,302.326 186.551,302.945 189.226 C 303.661 192.328,303.602 192.388,299.800 192.388 C 296.173 192.388,295.200 191.447,295.200 187.940 C 295.200 186.515,295.247 186.511,292.198 188.216 C 283.743 192.944,276.265 193.566,272.546 189.850 C 270.169 187.475,270.006 186.486,269.994 174.400 C 269.985 164.898,269.769 161.453,268.958 157.900 L 268.707 156.800 273.599 156.800 L 278.491 156.800 278.195 158.100 M316.839 157.900 C 317.070 158.505,317.351 159.540,317.464 160.200 C 317.577 160.860,317.735 161.616,317.815 161.880 C 317.908 162.191,319.275 161.673,321.680 160.416 C 325.733 158.297,330.105 156.800,332.242 156.800 L 333.600 156.800 333.600 160.451 L 333.600 164.102 331.900 163.751 C 328.123 162.971,323.199 163.326,320.474 164.575 L 317.947 165.733 318.147 177.566 C 318.257 184.075,318.404 190.030,318.473 190.800 L 318.600 192.200 314.400 192.301 C 309.020 192.431,309.060 192.459,309.797 188.979 C 310.606 185.160,310.634 163.790,309.835 160.000 C 309.138 156.696,309.035 156.800,313.034 156.800 C 316.359 156.800,316.427 156.820,316.839 157.900 M361.318 157.431 C 375.503 161.106,377.039 176.166,363.600 179.799 C 356.722 181.658,355.704 182.003,354.647 182.835 C 350.551 186.057,359.439 188.938,365.033 186.202 C 366.956 185.261,370.400 182.015,370.400 181.144 C 370.400 180.461,371.982 180.819,372.398 181.596 C 373.359 183.392,369.354 188.091,365.069 190.196 C 356.349 194.478,346.424 191.695,341.688 183.639 C 333.666 169.996,346.043 153.472,361.318 157.431 M175.823 161.376 C 170.060 163.506,168.505 170.706,172.186 178.224 C 174.125 182.186,174.903 182.837,176.122 181.522 C 177.405 180.138,180.072 178.666,183.511 177.444 C 188.972 175.503,190.004 174.497,189.996 171.120 C 189.983 165.264,181.354 159.331,175.823 161.376 M351.023 161.376 C 345.260 163.506,343.705 170.706,347.386 178.224 C 349.325 182.186,350.103 182.837,351.322 181.522 C 352.605 180.138,355.272 178.666,358.711 177.444 C 364.172 175.503,365.204 174.497,365.196 171.120 C 365.183 165.264,356.554 159.331,351.023 161.376 " stroke="none" fill="#fbfbfb" fill-rule="evenodd"></path><path id="path1" d="M22.158 139.849 C 23.590 146.599,23.598 184.888,22.169 190.583 L 21.913 191.600 26.799 191.600 C 30.996 191.600,31.653 191.515,31.453 190.995 C 30.096 187.457,30.416 178.283,32.005 175.210 C 33.378 172.553,37.353 168.969,38.444 169.403 C 39.136 169.679,48.556 187.575,49.232 189.900 L 49.727 191.600 54.909 191.600 L 60.092 191.600 59.368 190.500 C 57.445 187.580,54.761 183.071,53.118 180.000 C 52.117 178.130,50.016 174.218,48.449 171.306 C 44.989 164.877,44.996 165.268,48.300 163.644 C 57.832 158.959,61.889 151.643,58.321 145.576 C 55.079 140.064,52.019 139.195,34.857 138.912 L 21.914 138.698 22.158 139.849 M67.784 140.100 C 68.707 144.462,68.379 188.563,67.406 190.900 C 67.137 191.545,67.508 191.600,72.121 191.600 L 77.128 191.600 76.578 189.300 C 76.267 187.999,76.022 184.793,76.014 181.917 L 76.000 176.834 80.068 171.717 C 83.868 166.937,84.692 166.022,85.202 166.006 C 85.403 166.000,89.517 173.586,94.529 183.200 C 95.962 185.950,97.336 188.965,97.583 189.900 L 98.031 191.600 103.239 191.600 C 107.295 191.600,108.382 191.489,108.154 191.100 C 107.993 190.825,107.206 189.610,106.406 188.400 C 104.825 186.009,103.665 184.019,101.509 180.000 C 94.972 167.812,91.827 161.907,90.920 160.119 L 90.270 158.839 92.819 155.519 C 97.458 149.478,103.087 142.620,104.554 141.222 C 106.847 139.035,106.574 138.752,102.300 138.885 L 98.600 139.000 98.345 141.000 C 97.768 145.520,97.243 146.377,87.438 158.800 C 83.705 163.530,79.845 168.435,78.861 169.700 C 75.846 173.575,75.932 173.981,76.135 156.900 C 76.233 148.595,76.443 141.125,76.601 140.300 L 76.888 138.800 72.198 138.800 L 67.509 138.800 67.784 140.100 M116.103 139.300 C 115.583 139.959,115.089 145.600,115.551 145.600 C 115.747 145.600,116.197 145.158,116.551 144.619 C 118.393 141.807,128.840 139.509,132.026 141.214 C 133.016 141.744,133.212 183.921,132.248 188.900 L 131.725 191.600 136.653 191.600 L 141.580 191.600 141.111 190.500 C 140.421 188.880,140.138 142.198,140.814 141.383 C 142.521 139.326,153.359 141.356,156.181 144.262 L 157.600 145.723 157.600 142.894 C 157.600 141.338,157.491 139.781,157.357 139.433 C 157.032 138.584,116.770 138.455,116.103 139.300 M42.193 141.386 C 55.578 143.947,55.480 153.296,41.968 162.812 C 36.320 166.789,33.253 169.406,32.424 170.954 C 32.117 171.529,31.535 172.000,31.132 172.000 C 30.394 172.000,29.934 143.279,30.643 141.433 C 30.967 140.587,37.872 140.559,42.193 141.386 M176.200 158.348 C 169.130 160.795,164.761 167.014,164.740 174.661 C 164.693 191.434,188.667 198.168,196.247 183.510 C 197.041 181.973,196.314 180.897,195.361 182.200 C 191.438 187.561,185.099 189.497,179.972 186.900 C 176.870 185.329,176.858 183.384,179.940 181.709 C 181.306 180.967,182.283 180.673,187.100 179.561 C 193.859 178.001,196.800 175.100,196.800 169.995 C 196.800 161.349,185.686 155.065,176.200 158.348 M215.600 158.369 C 196.698 165.647,202.492 193.009,222.614 191.488 C 227.805 191.095,234.952 186.523,235.827 183.034 C 236.296 181.168,235.662 181.395,233.388 183.908 C 225.442 192.688,212.030 186.803,209.213 173.301 C 206.375 159.704,221.361 155.412,228.592 167.750 C 229.961 170.086,229.895 170.100,232.127 166.997 C 234.387 163.857,234.401 163.655,232.500 161.940 C 227.987 157.867,220.830 156.355,215.600 158.369 M269.820 158.500 C 269.992 158.995,270.259 165.250,270.413 172.400 C 270.728 186.961,270.746 187.091,272.754 189.196 C 276.161 192.767,282.047 192.442,290.596 188.209 C 295.484 185.790,295.428 185.784,295.990 188.745 C 296.540 191.647,296.476 191.600,299.851 191.600 C 302.522 191.600,302.831 191.523,302.649 190.900 C 301.160 185.805,301.163 163.377,302.654 158.286 C 302.847 157.627,302.538 157.580,298.732 157.686 C 295.293 157.781,294.626 157.901,294.754 158.400 C 295.437 161.058,295.926 180.946,295.360 183.053 C 295.144 183.858,292.362 185.376,287.400 187.395 C 282.785 189.273,278.920 188.477,277.543 185.364 C 276.726 183.517,276.608 162.360,277.395 158.900 L 277.691 157.600 273.599 157.600 C 269.529 157.600,269.508 157.605,269.820 158.500 M310.152 158.300 C 310.826 160.584,311.200 166.406,311.200 174.600 C 311.200 182.794,310.826 188.616,310.152 190.900 C 309.965 191.536,310.337 191.600,314.216 191.600 C 318.130 191.600,318.461 191.542,318.186 190.900 C 317.480 189.250,317.193 184.169,317.293 175.098 L 317.400 165.403 319.363 164.343 C 322.080 162.875,325.446 162.225,328.503 162.576 C 333.435 163.143,333.000 163.354,333.000 160.400 L 333.000 157.800 331.543 157.678 C 329.477 157.506,321.099 160.869,318.483 162.921 C 317.716 163.522,317.266 162.859,316.810 160.455 C 316.260 157.553,316.324 157.600,312.949 157.600 C 310.277 157.600,309.969 157.677,310.152 158.300 M351.400 158.348 C 344.330 160.795,339.961 167.014,339.940 174.661 C 339.893 191.434,363.867 198.168,371.447 183.510 C 372.241 181.973,371.514 180.897,370.561 182.200 C 366.638 187.561,360.299 189.497,355.172 186.900 C 352.070 185.329,352.058 183.384,355.140 181.709 C 356.506 180.967,357.483 180.673,362.300 179.561 C 369.059 178.001,372.000 175.100,372.000 169.995 C 372.000 161.349,360.886 155.065,351.400 158.348 M184.098 161.942 C 192.327 166.650,193.024 174.663,185.442 177.401 C 181.124 178.960,177.704 180.761,176.624 182.045 C 175.252 183.675,174.607 183.500,172.985 181.057 C 164.858 168.817,172.659 155.397,184.098 161.942 M359.298 161.942 C 367.527 166.650,368.224 174.663,360.642 177.401 C 356.324 178.960,352.904 180.761,351.824 182.045 C 350.452 183.675,349.807 183.500,348.185 181.057 C 340.058 168.817,347.859 155.397,359.298 161.942 " stroke="none" fill="#090909" fill-rule="evenodd"></path><path id="path2" d="M250.837 149.500 C 249.520 153.276,246.256 156.800,244.077 156.800 C 241.485 156.800,242.091 159.510,244.720 159.679 L 246.600 159.800 246.800 173.400 L 247.000 187.000 248.116 188.898 C 250.636 193.185,256.359 192.825,261.497 188.055 C 264.000 185.730,262.429 184.869,259.269 186.833 C 254.289 189.929,253.800 188.663,253.800 172.671 L 253.800 159.800 257.600 159.600 C 261.392 159.400,261.400 159.398,261.527 158.300 L 261.653 157.200 258.527 157.195 C 253.350 157.185,253.600 157.431,253.600 152.353 L 253.600 148.000 252.480 148.000 C 251.546 148.000,251.274 148.249,250.837 149.500 " stroke="none" fill="#fc944c" fill-rule="evenodd"></path><path id="path3" d="M21.750 138.987 C 21.626 139.310,21.722 140.075,21.963 140.687 C 22.370 141.720,22.385 141.689,22.173 140.252 L 21.946 138.704 34.873 138.855 C 41.983 138.939,46.900 138.886,45.800 138.738 C 41.452 138.155,21.992 138.356,21.750 138.987 M67.240 139.700 C 67.262 140.415,67.435 141.450,67.626 142.000 C 67.863 142.685,67.901 142.339,67.748 140.900 L 67.525 138.800 72.135 138.800 C 76.597 138.800,76.750 138.829,76.918 139.700 C 77.066 140.472,77.099 140.443,77.146 139.500 L 77.200 138.400 72.200 138.400 L 67.200 138.400 67.240 139.700 M98.261 139.100 C 97.873 140.505,97.533 143.792,97.803 143.526 C 97.956 143.376,98.198 142.296,98.341 141.126 L 98.600 139.000 102.300 138.885 C 106.573 138.752,106.846 139.034,104.559 141.222 C 103.767 141.980,102.038 143.950,100.717 145.600 C 98.197 148.750,99.072 147.880,103.900 142.437 C 105.495 140.639,106.800 138.995,106.800 138.784 C 106.800 138.005,98.478 138.313,98.261 139.100 M115.684 138.876 C 115.401 139.159,115.230 140.284,115.272 141.580 L 115.344 143.800 115.498 141.810 C 115.582 140.716,115.842 139.591,116.075 139.310 C 116.621 138.652,157.011 138.554,157.337 139.210 C 157.449 139.436,157.494 139.391,157.437 139.110 C 157.290 138.383,116.405 138.155,115.684 138.876 M49.200 139.600 C 50.568 140.038,51.619 140.038,50.600 139.600 C 50.160 139.411,49.440 139.262,49.000 139.268 C 48.357 139.277,48.396 139.343,49.200 139.600 M30.643 141.433 C 29.957 143.219,30.391 172.000,31.104 172.000 C 31.491 172.000,32.056 171.595,32.360 171.100 C 32.902 170.218,32.897 170.214,32.106 170.917 C 31.374 171.568,31.276 171.574,31.049 170.985 C 30.658 169.965,30.770 142.267,31.168 141.638 C 31.455 141.184,32.581 141.115,37.062 141.278 C 40.258 141.393,41.923 141.345,41.000 141.162 C 37.877 140.545,30.914 140.727,30.643 141.433 M54.143 141.292 C 56.190 142.691,57.004 143.494,58.054 145.150 C 59.257 147.046,59.600 147.123,58.634 145.280 C 57.935 143.946,55.739 141.851,54.400 141.240 C 53.553 140.854,53.514 140.862,54.143 141.292 M123.800 141.200 C 122.725 141.392,123.883 141.505,127.326 141.543 L 132.451 141.600 132.326 165.464 C 132.257 178.589,132.325 188.624,132.477 187.764 C 133.233 183.493,132.828 141.643,132.026 141.214 C 131.174 140.758,126.314 140.750,123.800 141.200 M140.845 141.345 C 140.518 141.740,140.423 147.855,140.500 163.445 L 140.607 185.000 140.704 163.300 L 140.800 141.600 145.900 141.547 C 149.921 141.504,150.577 141.427,149.000 141.182 C 145.595 140.651,141.351 140.736,140.845 141.345 M76.257 142.700 C 76.120 143.525,76.007 150.455,76.004 158.100 C 76.000 173.329,76.026 173.475,78.202 170.500 L 79.300 169.000 77.950 170.389 L 76.600 171.778 76.471 169.789 C 76.400 168.695,76.400 161.815,76.471 154.500 C 76.542 147.185,76.579 141.200,76.552 141.200 C 76.526 141.200,76.393 141.875,76.257 142.700 M157.586 143.433 L 157.571 145.800 156.686 144.742 C 155.555 143.393,152.882 141.594,152.044 141.620 C 151.690 141.631,152.140 141.999,153.044 142.438 C 154.746 143.264,156.117 144.367,156.677 145.362 C 157.536 146.887,158.123 146.209,158.028 143.800 C 157.904 140.657,157.604 140.408,157.586 143.433 M43.800 142.000 C 44.240 142.189,44.870 142.344,45.200 142.344 C 45.578 142.344,45.504 142.217,45.000 142.000 C 44.560 141.811,43.930 141.656,43.600 141.656 C 43.222 141.656,43.296 141.783,43.800 142.000 M119.200 142.437 C 117.582 143.400,115.048 145.982,115.388 146.321 C 115.515 146.448,115.900 146.150,116.243 145.660 C 117.233 144.246,118.386 143.297,120.156 142.438 C 121.060 141.999,121.530 141.632,121.200 141.621 C 120.870 141.611,119.970 141.978,119.200 142.437 M22.524 165.400 C 22.525 177.940,22.655 186.940,22.813 185.400 C 23.190 181.726,23.191 148.553,22.814 145.200 C 22.654 143.770,22.523 152.860,22.524 165.400 M48.524 144.066 C 49.142 144.581,50.013 145.452,50.459 146.001 C 50.905 146.551,51.137 146.730,50.975 146.400 C 50.509 145.449,49.073 143.963,48.200 143.528 C 47.744 143.300,47.883 143.531,48.524 144.066 M96.799 145.402 C 96.566 146.014,96.281 146.669,96.164 146.858 C 96.048 147.046,96.049 147.200,96.166 147.200 C 96.515 147.200,97.678 144.744,97.441 144.507 C 97.321 144.387,97.032 144.790,96.799 145.402 M68.185 165.200 C 68.185 175.870,68.237 180.235,68.300 174.900 C 68.363 169.565,68.363 160.835,68.300 155.500 C 68.237 150.165,68.185 154.530,68.185 165.200 M51.372 150.227 C 51.362 153.083,51.398 153.234,51.729 151.738 C 51.948 150.749,51.953 149.465,51.740 148.566 C 51.432 147.263,51.381 147.491,51.372 150.227 M59.359 150.219 C 59.338 153.292,59.350 153.334,59.718 151.469 C 59.947 150.306,59.955 149.040,59.739 148.288 C 59.451 147.281,59.377 147.656,59.359 150.219 M93.533 150.500 C 90.830 153.869,89.536 155.600,89.721 155.600 C 89.872 155.600,92.967 151.846,94.915 149.300 C 95.940 147.960,94.721 149.019,93.533 150.500 M96.733 150.500 C 94.030 153.869,92.736 155.600,92.921 155.600 C 93.072 155.600,96.167 151.846,98.115 149.300 C 99.140 147.960,97.921 149.019,96.733 150.500 M47.400 158.138 C 45.860 159.693,45.151 160.580,45.825 160.109 C 47.042 159.258,50.400 155.808,50.400 155.409 C 50.400 155.104,50.444 155.065,47.400 158.138 M57.437 156.600 C 57.076 157.150,56.937 157.600,57.127 157.600 C 57.316 157.600,57.677 157.150,57.927 156.600 C 58.178 156.050,58.317 155.600,58.237 155.600 C 58.157 155.600,57.797 156.050,57.437 156.600 M85.380 160.900 C 80.416 167.129,80.664 166.800,80.921 166.800 C 81.042 166.800,82.802 164.685,84.832 162.100 C 86.863 159.515,88.794 157.085,89.124 156.700 C 89.454 156.315,89.625 156.000,89.505 156.000 C 89.384 156.000,87.528 158.205,85.380 160.900 M91.357 157.421 C 90.376 158.707,90.807 162.526,91.819 161.514 C 91.920 161.413,91.721 160.764,91.376 160.072 C 90.772 158.862,90.789 158.760,91.822 157.407 C 92.412 156.633,92.793 156.000,92.668 156.000 C 92.543 156.000,91.953 156.640,91.357 157.421 M269.700 157.065 C 269.425 157.176,269.214 157.567,269.232 157.933 C 269.251 158.349,269.339 158.412,269.465 158.100 C 269.817 157.228,277.493 157.414,277.724 158.300 C 277.869 158.852,277.917 158.819,277.954 158.143 C 278.019 156.928,271.990 156.141,269.700 157.065 M294.667 157.067 C 294.032 157.701,294.631 157.793,298.613 157.674 L 302.828 157.548 302.605 158.674 C 302.388 159.768,302.394 159.772,302.805 158.826 C 303.587 157.029,303.143 156.800,298.879 156.800 C 296.709 156.800,294.813 156.920,294.667 157.067 M309.773 157.326 C 309.662 157.615,309.762 158.290,309.995 158.826 C 310.412 159.785,310.415 159.783,310.202 158.700 L 309.985 157.600 313.005 157.600 C 315.764 157.600,316.057 157.678,316.388 158.500 C 316.646 159.144,316.757 159.209,316.775 158.729 C 316.840 156.990,310.397 155.700,309.773 157.326 M180.100 157.491 C 180.925 157.578,182.275 157.578,183.100 157.491 C 183.925 157.405,183.250 157.334,181.600 157.334 C 179.950 157.334,179.275 157.405,180.100 157.491 M219.700 157.491 C 220.525 157.578,221.875 157.578,222.700 157.491 C 223.525 157.405,222.850 157.334,221.200 157.334 C 219.550 157.334,218.875 157.405,219.700 157.491 M331.800 157.533 C 333.474 157.912,333.900 162.546,332.319 163.180 C 331.427 163.539,331.433 163.550,332.517 163.575 L 333.634 163.600 333.517 160.500 L 333.400 157.400 332.000 157.331 C 330.639 157.264,330.633 157.269,331.800 157.533 M355.300 157.491 C 356.125 157.578,357.475 157.578,358.300 157.491 C 359.125 157.405,358.450 157.334,356.800 157.334 C 355.150 157.334,354.475 157.405,355.300 157.491 M186.000 158.000 C 186.330 158.213,186.870 158.388,187.200 158.388 C 187.733 158.388,187.733 158.345,187.200 158.000 C 186.870 157.787,186.330 157.612,186.000 157.612 C 185.467 157.612,185.467 157.655,186.000 158.000 M215.600 158.000 C 215.067 158.345,215.067 158.388,215.600 158.388 C 215.930 158.388,216.470 158.213,216.800 158.000 C 217.333 157.655,217.333 157.612,216.800 157.612 C 216.470 157.612,215.930 157.787,215.600 158.000 M225.400 158.000 C 226.596 158.514,227.595 158.514,226.800 158.000 C 226.470 157.787,225.840 157.622,225.400 157.634 L 224.600 157.656 225.400 158.000 M361.200 158.000 C 361.530 158.213,362.070 158.388,362.400 158.388 C 362.933 158.388,362.933 158.345,362.400 158.000 C 362.070 157.787,361.530 157.612,361.200 157.612 C 360.667 157.612,360.667 157.655,361.200 158.000 M54.785 159.526 C 53.787 160.337,52.527 161.323,51.985 161.717 C 51.030 162.413,51.039 162.414,52.289 161.737 C 53.501 161.082,57.234 158.024,56.800 158.043 C 56.690 158.048,55.783 158.715,54.785 159.526 M188.033 158.549 C 188.445 158.917,190.800 160.000,190.800 159.821 C 190.800 159.590,188.582 158.400,188.153 158.400 C 187.996 158.400,187.942 158.467,188.033 158.549 M213.100 159.029 C 211.549 159.870,211.725 160.161,213.300 159.359 C 214.808 158.593,215.075 158.394,214.567 158.416 C 214.365 158.425,213.705 158.701,213.100 159.029 M294.468 158.800 C 294.488 159.839,295.118 161.546,295.132 160.600 C 295.138 160.160,294.989 159.440,294.800 159.000 C 294.589 158.510,294.461 158.432,294.468 158.800 M324.853 159.053 C 324.113 159.376,323.592 159.725,323.695 159.828 C 323.799 159.932,324.675 159.666,325.642 159.237 C 326.609 158.808,327.130 158.458,326.800 158.461 C 326.470 158.463,325.594 158.730,324.853 159.053 M363.233 158.549 C 363.645 158.917,366.000 160.000,366.000 159.821 C 366.000 159.590,363.782 158.400,363.353 158.400 C 363.196 158.400,363.142 158.467,363.233 158.549 M269.872 160.600 C 269.999 161.700,270.169 162.675,270.251 162.767 C 270.532 163.082,270.320 160.599,269.980 159.600 C 269.751 158.926,269.716 159.251,269.872 160.600 M171.126 160.704 C 169.251 162.201,166.411 165.482,166.404 166.160 C 166.402 166.358,166.912 165.818,167.537 164.960 C 168.687 163.383,171.605 160.599,173.026 159.724 C 173.452 159.461,173.620 159.238,173.400 159.228 C 173.180 159.217,172.157 159.882,171.126 160.704 M229.996 159.888 C 234.062 162.792,234.518 163.722,232.957 165.927 L 231.914 167.400 233.157 166.015 C 233.841 165.253,234.400 164.331,234.400 163.966 C 234.400 163.226,231.443 160.341,229.958 159.633 C 229.012 159.183,229.012 159.186,229.996 159.888 M346.326 160.704 C 344.451 162.201,341.611 165.482,341.604 166.160 C 341.602 166.358,342.112 165.818,342.737 164.960 C 343.887 163.383,346.805 160.599,348.226 159.724 C 348.652 159.461,348.820 159.238,348.600 159.228 C 348.380 159.217,347.357 159.882,346.326 160.704 M277.050 160.850 C 276.714 162.529,276.784 183.618,277.128 184.484 C 277.278 184.861,277.400 179.416,277.400 172.384 C 277.400 165.353,277.377 159.600,277.350 159.600 C 277.322 159.600,277.188 160.163,277.050 160.850 M316.981 160.965 C 317.211 162.860,317.787 163.576,318.500 162.851 C 318.901 162.444,318.887 162.368,318.431 162.471 C 318.072 162.553,317.665 162.011,317.327 161.000 L 316.792 159.400 316.981 160.965 M192.526 161.273 C 193.366 161.959,194.491 163.165,195.026 163.953 C 195.562 164.741,196.000 165.168,196.000 164.902 C 196.000 164.299,191.952 159.995,191.402 160.013 C 191.181 160.021,191.687 160.588,192.526 161.273 M209.685 161.420 C 208.772 162.201,207.646 163.416,207.181 164.120 C 206.343 165.391,206.345 165.390,207.576 164.000 C 208.257 163.230,209.486 162.022,210.307 161.315 C 211.128 160.608,211.697 160.023,211.572 160.015 C 211.447 160.007,210.597 160.639,209.685 161.420 M367.726 161.273 C 368.566 161.959,369.691 163.165,370.226 163.953 C 370.762 164.741,371.200 165.168,371.200 164.902 C 371.200 164.299,367.152 159.995,366.602 160.013 C 366.381 160.021,366.887 160.588,367.726 161.273 M177.100 160.689 C 177.815 160.778,178.985 160.778,179.700 160.689 C 180.415 160.601,179.830 160.528,178.400 160.528 C 176.970 160.528,176.385 160.601,177.100 160.689 M216.300 160.689 C 217.015 160.778,218.185 160.778,218.900 160.689 C 219.615 160.601,219.030 160.528,217.600 160.528 C 216.170 160.528,215.585 160.601,216.300 160.689 M301.854 162.256 C 301.515 164.731,301.572 185.381,301.923 187.358 C 302.075 188.215,302.200 182.500,302.200 174.658 C 302.200 166.816,302.179 160.400,302.154 160.400 C 302.129 160.400,301.994 161.235,301.854 162.256 M352.300 160.689 C 353.015 160.778,354.185 160.778,354.900 160.689 C 355.615 160.601,355.030 160.528,353.600 160.528 C 352.170 160.528,351.585 160.601,352.300 160.689 M40.615 163.318 C 38.643 164.683,36.033 166.765,34.815 167.944 L 32.600 170.088 34.796 168.197 C 36.004 167.156,38.659 165.143,40.696 163.723 C 43.824 161.542,44.841 160.722,44.300 160.818 C 44.245 160.827,42.587 161.952,40.615 163.318 M174.200 161.267 C 171.923 162.526,169.570 166.207,169.640 168.400 C 169.661 169.074,169.840 168.789,170.188 167.524 C 170.933 164.820,172.220 162.953,174.129 161.809 C 175.750 160.838,175.810 160.376,174.200 161.267 M181.600 161.086 C 181.930 161.209,182.695 161.560,183.300 161.865 C 183.905 162.171,184.400 162.331,184.400 162.221 C 184.400 161.907,182.098 160.796,181.520 160.832 C 181.171 160.853,181.197 160.936,181.600 161.086 M212.832 161.777 C 212.104 162.314,211.231 163.169,210.892 163.677 C 210.510 164.250,210.868 164.051,211.838 163.152 C 212.697 162.356,213.760 161.506,214.200 161.264 C 214.640 161.022,214.810 160.819,214.578 160.812 C 214.345 160.805,213.560 161.239,212.832 161.777 M220.433 160.958 C 220.740 161.249,223.600 162.361,223.600 162.190 C 223.600 161.925,221.296 160.800,220.753 160.800 C 220.486 160.800,220.342 160.871,220.433 160.958 M310.507 174.600 C 310.507 182.728,310.638 187.761,310.818 186.600 C 310.990 185.500,311.130 180.100,311.130 174.600 C 311.130 169.100,310.990 163.700,310.818 162.600 C 310.638 161.439,310.507 166.472,310.507 174.600 M320.000 161.633 L 319.000 162.448 320.300 161.814 C 321.015 161.465,321.600 161.094,321.600 160.990 C 321.600 160.592,320.963 160.848,320.000 161.633 M349.400 161.267 C 347.123 162.526,344.770 166.207,344.840 168.400 C 344.861 169.074,345.040 168.789,345.388 167.524 C 346.133 164.820,347.420 162.953,349.329 161.809 C 350.950 160.838,351.010 160.376,349.400 161.267 M356.800 161.086 C 357.130 161.209,357.895 161.560,358.500 161.865 C 359.105 162.171,359.600 162.331,359.600 162.221 C 359.600 161.907,357.298 160.796,356.720 160.832 C 356.371 160.853,356.397 160.936,356.800 161.086 M184.800 162.478 C 187.358 164.857,188.872 166.033,187.600 164.653 C 186.830 163.818,185.840 162.945,185.400 162.713 C 184.960 162.481,184.690 162.375,184.800 162.478 M225.805 164.500 C 226.876 165.765,227.821 166.800,227.904 166.800 C 228.227 166.800,226.405 164.538,225.165 163.400 C 224.325 162.629,224.554 163.023,225.805 164.500 M323.676 162.740 C 323.168 162.883,324.664 163.000,327.000 163.000 C 329.336 163.000,330.832 162.883,330.324 162.740 C 329.816 162.597,328.320 162.480,327.000 162.480 C 325.680 162.480,324.184 162.597,323.676 162.740 M360.000 162.478 C 362.558 164.857,364.072 166.033,362.800 164.653 C 362.030 163.818,361.040 162.945,360.600 162.713 C 360.160 162.481,359.890 162.375,360.000 162.478 M47.300 164.104 C 46.365 164.573,45.600 165.201,45.600 165.499 C 45.600 166.247,46.811 168.523,47.070 168.263 C 47.187 168.147,46.993 167.640,46.641 167.137 C 45.680 165.765,45.844 165.296,47.600 164.400 C 48.480 163.951,49.200 163.497,49.200 163.392 C 49.200 163.141,49.263 163.117,47.300 164.104 M319.400 164.311 L 317.400 165.403 317.390 175.801 L 317.380 186.200 317.497 175.872 L 317.613 165.545 320.107 164.391 C 321.478 163.756,322.330 163.233,322.000 163.228 C 321.670 163.223,320.500 163.710,319.400 164.311 M93.820 165.640 C 94.389 166.762,94.934 167.599,95.033 167.501 C 95.223 167.310,93.251 163.600,92.959 163.600 C 92.864 163.600,93.252 164.518,93.820 165.640 M295.372 173.800 C 295.372 178.860,295.429 180.875,295.499 178.277 C 295.569 175.680,295.568 171.540,295.498 169.077 C 295.428 166.615,295.371 168.740,295.372 173.800 M83.639 167.286 C 82.978 167.993,82.512 168.645,82.602 168.736 C 82.693 168.826,83.255 168.320,83.852 167.611 L 84.937 166.321 85.680 167.261 L 86.422 168.200 85.947 167.100 C 85.342 165.699,85.104 165.718,83.639 167.286 M209.050 168.050 C 208.742 169.589,208.789 171.873,209.154 173.184 C 209.305 173.725,209.429 172.510,209.429 170.484 C 209.429 166.395,209.408 166.261,209.050 168.050 M228.845 168.700 C 229.940 170.762,229.970 170.765,231.119 168.895 L 232.039 167.400 230.991 168.600 C 230.010 169.725,229.914 169.754,229.472 169.065 C 228.359 167.334,228.011 167.131,228.845 168.700 M196.928 170.000 C 196.928 171.430,197.001 172.015,197.089 171.300 C 197.178 170.585,197.178 169.415,197.089 168.700 C 197.001 167.985,196.928 168.570,196.928 170.000 M372.128 170.000 C 372.128 171.430,372.201 172.015,372.289 171.300 C 372.378 170.585,372.378 169.415,372.289 168.700 C 372.201 167.985,372.128 168.570,372.128 170.000 M86.470 168.700 C 87.172 170.247,89.255 174.000,89.411 174.000 C 89.520 174.000,88.976 172.740,88.200 171.200 C 87.424 169.660,86.687 168.400,86.562 168.400 C 86.436 168.400,86.395 168.535,86.470 168.700 M165.000 169.200 C 164.850 169.673,164.817 170.150,164.927 170.260 C 165.037 170.370,165.250 170.073,165.400 169.600 C 165.550 169.127,165.583 168.650,165.473 168.540 C 165.363 168.430,165.150 168.727,165.000 169.200 M340.200 169.200 C 340.050 169.673,340.017 170.150,340.127 170.260 C 340.237 170.370,340.450 170.073,340.600 169.600 C 340.750 169.127,340.783 168.650,340.673 168.540 C 340.563 168.430,340.350 168.727,340.200 169.200 M36.522 170.237 L 35.400 171.273 36.697 170.411 C 38.222 169.398,38.545 169.532,39.614 171.627 C 40.055 172.492,40.506 173.200,40.616 173.200 C 40.936 173.200,39.139 169.830,38.646 169.506 C 37.952 169.049,37.723 169.127,36.522 170.237 M79.026 173.032 L 76.000 176.863 76.040 182.132 C 76.062 185.029,76.210 187.850,76.368 188.400 C 76.527 188.950,76.576 186.610,76.479 183.200 L 76.301 177.000 79.016 173.600 C 82.575 169.143,82.533 169.200,82.275 169.200 C 82.153 169.200,80.691 170.924,79.026 173.032 M97.020 171.640 C 97.589 172.762,98.134 173.599,98.233 173.501 C 98.423 173.310,96.451 169.600,96.159 169.600 C 96.064 169.600,96.452 170.518,97.020 171.640 M49.020 172.440 C 49.589 173.562,50.134 174.399,50.233 174.301 C 50.423 174.110,48.451 170.400,48.159 170.400 C 48.064 170.400,48.452 171.318,49.020 172.440 M33.771 172.729 C 32.646 174.083,31.396 175.941,32.242 175.000 C 32.440 174.780,33.219 173.928,33.974 173.106 C 34.728 172.284,35.266 171.533,35.169 171.435 C 35.072 171.338,34.442 171.921,33.771 172.729 M164.275 173.100 C 164.149 174.145,164.187 175.720,164.359 176.600 C 164.615 177.904,164.680 177.552,164.711 174.700 C 164.754 170.784,164.615 170.273,164.275 173.100 M339.475 173.100 C 339.349 174.145,339.387 175.720,339.559 176.600 C 339.815 177.904,339.880 177.552,339.911 174.700 C 339.954 170.784,339.815 170.273,339.475 173.100 M169.687 172.400 C 169.683 172.950,169.824 173.850,170.000 174.400 C 170.431 175.744,170.431 174.292,170.000 172.600 C 169.726 171.522,169.694 171.502,169.687 172.400 M344.887 172.400 C 344.883 172.950,345.024 173.850,345.200 174.400 C 345.631 175.744,345.631 174.292,345.200 172.600 C 344.926 171.522,344.894 171.502,344.887 172.400 M196.186 173.644 C 196.039 174.109,195.286 175.234,194.513 176.144 C 193.455 177.391,193.564 177.321,194.954 175.861 C 195.969 174.795,196.800 173.670,196.800 173.361 C 196.800 172.536,196.493 172.678,196.186 173.644 M203.714 174.600 C 203.717 175.700,203.795 176.103,203.887 175.495 C 203.979 174.886,203.977 173.986,203.882 173.495 C 203.787 173.003,203.711 173.500,203.714 174.600 M371.386 173.644 C 371.239 174.109,370.486 175.234,369.713 176.144 C 368.655 177.391,368.764 177.321,370.154 175.861 C 371.169 174.795,372.000 173.670,372.000 173.361 C 372.000 172.536,371.693 172.678,371.386 173.644 M189.500 174.445 C 189.081 175.176,187.998 176.021,186.708 176.626 C 185.548 177.168,185.050 177.501,185.600 177.364 C 187.696 176.844,191.028 174.095,190.366 173.432 C 190.266 173.333,189.877 173.789,189.500 174.445 M364.700 174.445 C 364.281 175.176,363.198 176.021,361.908 176.626 C 360.748 177.168,360.250 177.501,360.800 177.364 C 362.896 176.844,366.228 174.095,365.566 173.432 C 365.466 173.333,365.077 173.789,364.700 174.445 M89.670 174.700 C 90.372 176.247,92.455 180.000,92.611 180.000 C 92.720 180.000,92.176 178.740,91.400 177.200 C 90.624 175.660,89.887 174.400,89.762 174.400 C 89.636 174.400,89.595 174.535,89.670 174.700 M51.400 176.800 C 51.957 177.900,52.503 178.800,52.613 178.800 C 52.723 178.800,52.357 177.900,51.800 176.800 C 51.243 175.700,50.697 174.800,50.587 174.800 C 50.477 174.800,50.843 175.700,51.400 176.800 M209.612 175.200 C 209.612 175.530,209.787 176.070,210.000 176.400 C 210.345 176.933,210.388 176.933,210.388 176.400 C 210.388 176.070,210.213 175.530,210.000 175.200 C 209.655 174.667,209.612 174.667,209.612 175.200 M41.600 175.350 C 41.600 175.641,43.671 179.200,43.841 179.200 C 43.936 179.200,43.557 178.300,43.000 177.200 C 42.131 175.486,41.600 174.783,41.600 175.350 M100.220 177.640 C 100.789 178.762,101.334 179.599,101.433 179.501 C 101.623 179.310,99.651 175.600,99.359 175.600 C 99.264 175.600,99.652 176.518,100.220 177.640 M210.400 177.353 C 210.400 177.782,211.590 180.000,211.821 180.000 C 211.931 180.000,211.723 179.415,211.359 178.700 C 210.617 177.240,210.400 176.936,210.400 177.353 M171.200 177.753 C 171.200 178.182,172.390 180.400,172.621 180.400 C 172.731 180.400,172.523 179.815,172.159 179.100 C 171.417 177.640,171.200 177.336,171.200 177.753 M182.800 178.000 C 182.267 178.345,182.267 178.388,182.800 178.388 C 183.130 178.388,183.670 178.213,184.000 178.000 C 184.533 177.655,184.533 177.612,184.000 177.612 C 183.670 177.612,183.130 177.787,182.800 178.000 M346.400 177.753 C 346.400 178.182,347.590 180.400,347.821 180.400 C 347.931 180.400,347.723 179.815,347.359 179.100 C 346.617 177.640,346.400 177.336,346.400 177.753 M358.000 178.000 C 357.467 178.345,357.467 178.388,358.000 178.388 C 358.330 178.388,358.870 178.213,359.200 178.000 C 359.733 177.655,359.733 177.612,359.200 177.612 C 358.870 177.612,358.330 177.787,358.000 178.000 M30.617 180.100 C 30.485 181.255,30.535 183.640,30.729 185.400 C 31.069 188.491,31.080 188.419,31.046 183.300 C 31.006 177.398,30.963 177.076,30.617 180.100 M179.256 179.596 C 178.076 180.247,176.721 181.233,176.243 181.789 C 175.155 183.056,174.993 183.050,173.744 181.700 L 172.727 180.600 173.591 181.900 C 174.661 183.511,175.307 183.533,176.706 182.003 C 177.308 181.345,178.790 180.269,180.000 179.611 C 181.210 178.953,182.020 178.414,181.800 178.414 C 181.580 178.414,180.435 178.946,179.256 179.596 M354.456 179.596 C 353.276 180.247,351.921 181.233,351.443 181.789 C 350.355 183.056,350.193 183.050,348.944 181.700 L 347.927 180.600 348.791 181.900 C 349.861 183.511,350.507 183.533,351.906 182.003 C 352.508 181.345,353.990 180.269,355.200 179.611 C 356.410 178.953,357.220 178.414,357.000 178.414 C 356.780 178.414,355.635 178.946,354.456 179.596 M187.000 179.600 C 186.496 179.817,186.422 179.944,186.800 179.944 C 187.130 179.944,187.760 179.789,188.200 179.600 C 188.704 179.383,188.778 179.256,188.400 179.256 C 188.070 179.256,187.440 179.411,187.000 179.600 M362.200 179.600 C 361.696 179.817,361.622 179.944,362.000 179.944 C 362.330 179.944,362.960 179.789,363.400 179.600 C 363.904 179.383,363.978 179.256,363.600 179.256 C 363.270 179.256,362.640 179.411,362.200 179.600 M183.400 180.400 L 182.600 180.744 183.400 180.744 C 183.840 180.744,184.560 180.589,185.000 180.400 L 185.800 180.056 185.000 180.056 C 184.560 180.056,183.840 180.211,183.400 180.400 M358.600 180.400 L 357.800 180.744 358.600 180.744 C 359.040 180.744,359.760 180.589,360.200 180.400 L 361.000 180.056 360.200 180.056 C 359.760 180.056,359.040 180.211,358.600 180.400 M54.779 183.000 C 55.499 184.320,56.275 185.580,56.504 185.800 C 56.733 186.020,56.326 185.120,55.600 183.800 C 54.874 182.480,54.098 181.220,53.875 181.000 C 53.652 180.780,54.059 181.680,54.779 183.000 M180.007 181.652 C 176.318 183.901,178.265 188.061,182.972 187.987 C 183.427 187.980,182.855 187.647,181.699 187.248 C 177.034 185.637,176.809 183.722,181.035 181.613 C 181.896 181.183,182.330 180.825,182.000 180.817 C 181.670 180.809,180.773 181.185,180.007 181.652 M195.566 181.415 C 195.255 181.812,194.049 183.106,192.887 184.290 C 191.724 185.474,191.122 186.256,191.548 186.028 C 192.346 185.601,194.329 183.610,195.361 182.200 C 196.204 181.047,197.069 181.914,196.415 183.257 C 195.978 184.154,195.986 184.162,196.578 183.424 C 197.335 182.478,197.341 182.346,196.666 181.423 C 196.151 180.719,196.112 180.719,195.566 181.415 M234.253 182.300 C 233.134 184.054,231.942 185.191,230.000 186.357 C 228.402 187.316,228.668 187.496,230.377 186.612 C 231.003 186.288,232.432 184.995,233.551 183.739 C 234.671 182.482,235.702 181.569,235.842 181.708 C 237.038 182.905,232.250 188.179,228.313 190.000 C 226.931 190.640,226.031 191.172,226.313 191.182 C 229.379 191.291,236.844 184.222,236.233 181.788 C 235.889 180.417,235.369 180.551,234.253 182.300 M355.207 181.652 C 351.518 183.901,353.465 188.061,358.172 187.987 C 358.627 187.980,358.055 187.647,356.899 187.248 C 352.234 185.637,352.009 183.722,356.235 181.613 C 357.096 181.183,357.530 180.825,357.200 180.817 C 356.870 180.809,355.973 181.185,355.207 181.652 M370.766 181.415 C 370.455 181.812,369.249 183.106,368.087 184.290 C 366.924 185.474,366.322 186.256,366.748 186.028 C 367.546 185.601,369.529 183.610,370.561 182.200 C 371.404 181.047,372.269 181.914,371.615 183.257 C 371.178 184.154,371.186 184.162,371.778 183.424 C 372.535 182.478,372.541 182.346,371.866 181.423 C 371.351 180.719,371.312 180.719,370.766 181.415 M44.803 181.300 C 44.813 181.597,48.777 188.950,48.787 188.692 C 48.805 188.257,45.234 181.200,44.996 181.200 C 44.888 181.200,44.802 181.245,44.803 181.300 M103.000 182.800 C 103.341 183.460,103.711 184.000,103.821 184.000 C 103.931 184.000,103.741 183.460,103.400 182.800 C 103.059 182.140,102.689 181.600,102.579 181.600 C 102.469 181.600,102.659 182.140,103.000 182.800 M213.615 182.635 C 214.808 184.130,217.936 186.598,218.246 186.288 C 218.368 186.165,218.059 185.846,217.559 185.578 C 217.059 185.310,215.745 184.261,214.640 183.246 C 213.282 181.999,212.950 181.800,213.615 182.635 M95.527 185.958 C 96.557 188.135,97.471 189.849,97.558 189.766 C 97.748 189.587,94.119 182.000,93.844 182.000 C 93.739 182.000,94.496 183.781,95.527 185.958 M205.600 182.648 C 205.600 182.858,206.144 183.653,206.810 184.415 L 208.019 185.800 206.987 184.210 C 205.764 182.329,205.600 182.144,205.600 182.648 M166.952 183.805 C 168.139 186.313,174.471 191.220,176.487 191.193 C 176.769 191.190,175.726 190.567,174.170 189.809 C 171.512 188.516,169.027 186.336,167.090 183.600 L 166.382 182.600 166.952 183.805 M342.152 183.805 C 343.339 186.313,349.671 191.220,351.687 191.193 C 351.969 191.190,350.926 190.567,349.370 189.809 C 346.712 188.516,344.227 186.336,342.290 183.600 L 341.582 182.600 342.152 183.805 M292.200 184.869 C 288.813 186.691,289.036 186.895,292.511 185.153 C 295.188 183.811,295.422 183.663,295.167 183.481 C 295.075 183.416,293.740 184.040,292.200 184.869 M104.802 185.800 C 105.263 186.680,106.006 187.850,106.453 188.400 C 107.125 189.226,107.104 189.115,106.334 187.766 C 104.928 185.306,103.752 183.797,104.802 185.800 M193.600 186.715 C 192.074 188.298,191.820 188.683,192.771 187.970 C 193.955 187.082,196.382 184.370,195.951 184.416 C 195.868 184.425,194.810 185.459,193.600 186.715 M270.446 185.200 C 270.427 185.750,270.587 186.470,270.800 186.800 C 271.294 187.564,271.294 186.742,270.800 185.200 L 270.480 184.200 270.446 185.200 M368.800 186.715 C 367.274 188.298,367.020 188.683,367.971 187.970 C 369.155 187.082,371.582 184.370,371.151 184.416 C 371.068 184.425,370.010 185.459,368.800 186.715 M277.987 186.291 C 278.224 186.781,278.819 187.376,279.309 187.613 C 280.138 188.014,280.149 188.003,279.468 187.454 C 279.065 187.130,278.470 186.535,278.146 186.132 C 277.597 185.451,277.586 185.462,277.987 186.291 M208.567 186.713 C 209.521 187.830,213.579 190.554,213.864 190.269 C 213.980 190.153,213.473 189.749,212.737 189.370 C 212.002 188.992,210.590 188.037,209.600 187.249 C 208.610 186.460,208.145 186.220,208.567 186.713 M293.776 186.622 C 293.036 187.215,293.044 187.223,293.934 186.790 C 295.049 186.248,294.990 186.195,295.506 188.200 C 295.751 189.152,295.934 189.446,295.959 188.926 C 296.068 186.625,295.078 185.580,293.776 186.622 M57.044 186.900 C 57.205 187.175,57.815 188.120,58.400 189.000 C 58.985 189.880,59.595 190.825,59.756 191.100 C 59.983 191.489,58.898 191.600,54.855 191.600 L 49.664 191.600 49.372 190.300 C 49.211 189.585,49.011 189.198,48.927 189.439 C 48.843 189.681,48.955 190.356,49.177 190.939 L 49.580 192.000 54.990 192.000 C 57.966 192.000,60.400 191.878,60.400 191.728 C 60.400 191.373,57.160 186.400,56.929 186.400 C 56.832 186.400,56.884 186.625,57.044 186.900 M186.400 187.600 L 185.400 187.920 186.400 187.932 C 186.950 187.938,187.760 187.789,188.200 187.600 L 189.000 187.256 188.200 187.268 C 187.760 187.274,186.950 187.424,186.400 187.600 M221.515 187.672 C 221.892 187.821,223.280 187.944,224.600 187.944 C 225.920 187.944,227.308 187.821,227.685 187.672 C 228.062 187.522,226.674 187.400,224.600 187.400 C 222.526 187.400,221.138 187.522,221.515 187.672 M285.600 187.600 C 285.067 187.945,285.067 187.988,285.600 187.988 C 285.930 187.988,286.470 187.813,286.800 187.600 C 287.333 187.255,287.333 187.212,286.800 187.212 C 286.470 187.212,285.930 187.387,285.600 187.600 M290.400 188.400 C 289.190 189.039,288.341 189.571,288.513 189.581 C 288.938 189.607,292.800 187.636,292.800 187.393 C 292.800 187.126,292.855 187.103,290.400 188.400 M361.600 187.600 L 360.600 187.920 361.600 187.932 C 362.150 187.938,362.960 187.789,363.400 187.600 L 364.200 187.256 363.400 187.268 C 362.960 187.274,362.150 187.424,361.600 187.600 M271.213 187.853 C 271.196 188.436,274.244 191.200,274.901 191.199 C 275.176 191.198,274.845 190.859,274.168 190.445 C 273.490 190.032,272.550 189.178,272.080 188.547 C 271.610 187.916,271.220 187.604,271.213 187.853 M67.450 189.250 C 67.117 190.917,67.440 191.240,67.800 189.600 C 67.952 188.909,67.993 188.259,67.891 188.158 C 67.789 188.056,67.591 188.547,67.450 189.250 M140.868 188.800 C 140.862 189.350,141.011 190.160,141.200 190.600 L 141.544 191.400 141.532 190.600 C 141.526 190.160,141.376 189.350,141.200 188.800 L 140.880 187.800 140.868 188.800 M281.300 188.287 C 281.905 188.378,282.895 188.378,283.500 188.287 C 284.105 188.195,283.610 188.120,282.400 188.120 C 281.190 188.120,280.695 188.195,281.300 188.287 M317.646 188.800 C 317.627 189.350,317.787 190.070,318.000 190.400 C 318.494 191.164,318.494 190.342,318.000 188.800 L 317.680 187.800 317.646 188.800 M21.852 190.100 C 21.340 192.009,21.317 192.000,26.800 192.000 C 32.411 192.000,32.573 191.926,31.564 189.800 C 31.264 189.167,31.226 189.272,31.382 190.300 L 31.580 191.600 26.758 191.600 L 21.936 191.600 22.200 190.400 C 22.505 189.012,22.212 188.759,21.852 190.100 M309.852 190.100 C 309.342 192.002,309.349 192.005,314.100 191.915 L 318.600 191.830 314.313 191.702 L 310.025 191.573 310.263 190.387 C 310.539 189.005,310.208 188.773,309.852 190.100 M107.822 190.500 L 108.492 191.600 103.279 191.600 C 100.118 191.600,97.987 191.439,97.863 191.190 C 97.752 190.965,97.706 191.010,97.763 191.290 C 97.886 191.900,108.800 192.262,108.800 191.656 C 108.800 191.454,108.429 190.864,107.976 190.344 L 107.153 189.400 107.822 190.500 M302.601 190.500 L 302.815 191.600 299.795 191.600 C 297.036 191.600,296.743 191.522,296.412 190.700 C 296.213 190.205,296.039 190.010,296.025 190.267 C 295.944 191.772,296.445 192.000,299.843 192.000 C 303.355 192.000,303.557 191.875,302.766 190.200 C 302.453 189.538,302.425 189.590,302.601 190.500 M76.954 190.700 C 77.123 191.591,77.077 191.601,72.063 191.686 L 67.000 191.773 71.967 191.899 C 77.190 192.032,77.734 191.896,77.146 190.600 C 76.811 189.861,76.797 189.869,76.954 190.700 M131.443 190.633 C 130.949 191.919,131.263 191.999,136.500 191.913 L 141.800 191.826 136.740 191.701 C 131.933 191.583,131.691 191.538,131.887 190.788 C 132.133 189.849,131.790 189.729,131.443 190.633 M178.315 191.672 C 178.692 191.821,180.260 191.944,181.800 191.944 C 183.340 191.944,184.908 191.821,185.285 191.672 C 185.662 191.522,184.094 191.400,181.800 191.400 C 179.506 191.400,177.938 191.522,178.315 191.672 M217.514 191.672 C 217.891 191.821,219.460 191.944,221.000 191.944 C 222.540 191.944,224.107 191.821,224.483 191.672 C 224.858 191.522,223.289 191.400,220.997 191.400 C 218.704 191.400,217.137 191.522,217.514 191.672 M276.317 191.672 C 276.693 191.821,278.170 191.944,279.600 191.944 C 281.030 191.944,282.508 191.821,282.886 191.672 C 283.263 191.522,281.785 191.400,279.603 191.400 C 277.421 191.400,275.942 191.522,276.317 191.672 M353.515 191.672 C 353.892 191.821,355.460 191.944,357.000 191.944 C 358.540 191.944,360.108 191.821,360.485 191.672 C 360.862 191.522,359.294 191.400,357.000 191.400 C 354.706 191.400,353.138 191.522,353.515 191.672 " stroke="none" fill="#747474" fill-rule="evenodd"></path><path id="path4" d="M44.433 138.547 C 44.525 138.628,45.770 138.793,47.200 138.915 C 48.838 139.054,49.356 139.018,48.600 138.815 C 47.378 138.489,44.130 138.280,44.433 138.547 M77.018 140.218 C 76.865 141.239,76.822 142.155,76.922 142.255 C 77.022 142.355,77.229 141.602,77.382 140.582 C 77.535 139.561,77.578 138.645,77.478 138.545 C 77.378 138.445,77.171 139.198,77.018 140.218 M97.867 138.667 C 97.720 138.813,97.623 139.668,97.650 140.567 L 97.700 142.200 97.999 140.400 C 98.316 138.496,98.296 138.238,97.867 138.667 M106.832 138.730 C 106.814 139.021,105.855 140.281,104.700 141.530 C 101.640 144.837,100.637 146.000,100.845 146.000 C 101.374 146.000,107.233 139.116,107.063 138.695 C 106.913 138.324,106.855 138.333,106.832 138.730 M157.388 138.819 C 157.518 139.160,157.789 140.870,157.990 142.619 L 158.357 145.800 158.213 142.455 C 158.134 140.615,157.863 138.905,157.611 138.655 C 157.268 138.314,157.212 138.355,157.388 138.819 M54.000 140.983 C 56.429 142.260,58.268 144.260,59.194 146.632 C 59.617 147.715,59.971 148.369,59.981 148.087 C 60.073 145.569,54.812 139.883,52.516 140.019 C 52.342 140.029,53.010 140.463,54.000 140.983 M21.893 142.600 C 22.013 143.920,22.176 145.075,22.255 145.167 C 22.551 145.507,22.331 141.770,22.010 141.000 C 21.808 140.517,21.762 141.151,21.893 142.600 M31.043 141.833 C 30.725 142.660,30.726 170.142,31.044 170.970 C 31.231 171.457,31.906 170.970,33.944 168.876 C 35.405 167.375,37.230 165.652,38.000 165.047 C 38.893 164.346,38.705 164.422,37.481 165.256 C 36.425 165.975,34.660 167.516,33.558 168.681 C 32.456 169.847,31.473 170.800,31.372 170.800 C 31.272 170.800,31.237 164.275,31.295 156.300 L 31.400 141.800 35.600 141.578 L 39.800 141.357 35.543 141.278 C 31.982 141.213,31.246 141.303,31.043 141.833 M67.400 165.401 C 67.400 178.737,67.517 189.232,67.660 188.724 C 67.803 188.216,67.920 177.720,67.920 165.400 C 67.920 153.080,67.803 142.585,67.660 142.077 C 67.517 141.569,67.400 152.065,67.400 165.401 M114.973 144.000 C 115.005 147.087,115.293 147.186,117.411 144.837 C 118.285 143.867,118.625 143.307,118.167 143.591 C 117.708 143.876,116.988 144.624,116.567 145.254 C 115.465 146.898,115.254 146.704,115.091 143.900 L 114.945 141.400 114.973 144.000 M41.233 141.747 C 41.325 141.828,42.120 142.004,43.000 142.138 C 44.115 142.307,44.358 142.271,43.800 142.019 C 43.032 141.671,40.890 141.444,41.233 141.747 M121.200 142.006 C 120.778 142.282,121.015 142.323,122.000 142.142 C 123.725 141.825,124.051 141.598,122.767 141.606 C 122.235 141.609,121.530 141.789,121.200 142.006 M131.901 156.100 C 131.956 164.075,132.050 174.110,132.110 178.400 C 132.169 182.690,132.259 176.165,132.309 163.900 C 132.359 151.635,132.265 141.600,132.100 141.600 C 131.935 141.600,131.845 148.125,131.901 156.100 M140.925 164.600 C 140.900 177.360,140.997 188.217,141.140 188.727 C 141.381 189.585,141.335 155.776,141.083 145.800 C 141.021 143.380,140.950 151.840,140.925 164.600 M149.633 141.743 C 149.725 141.821,150.430 142.001,151.200 142.142 C 152.185 142.323,152.422 142.282,152.000 142.006 C 151.458 141.650,149.237 141.403,149.633 141.743 M97.246 143.067 C 97.221 143.324,97.084 143.864,96.941 144.267 C 96.740 144.836,96.794 144.897,97.179 144.542 C 97.452 144.291,97.589 143.751,97.484 143.342 C 97.379 142.934,97.272 142.810,97.246 143.067 M154.400 143.322 C 154.400 143.392,154.963 143.979,155.650 144.625 C 156.525 145.448,156.747 145.548,156.391 144.959 C 155.951 144.233,154.400 142.957,154.400 143.322 M76.495 157.500 C 76.443 165.255,76.483 171.600,76.584 171.600 C 76.880 171.600,78.400 169.904,79.272 168.600 C 79.736 167.906,79.391 168.159,78.453 169.200 L 76.831 171.000 76.710 157.200 L 76.589 143.400 76.495 157.500 M49.251 144.977 C 49.610 145.430,50.187 146.340,50.535 147.000 C 50.891 147.674,51.175 147.922,51.184 147.567 C 51.193 147.218,50.615 146.308,49.900 145.543 C 49.185 144.779,48.893 144.524,49.251 144.977 M95.630 146.927 C 95.104 147.847,94.052 149.410,93.291 150.400 L 91.909 152.200 93.371 150.600 C 94.897 148.929,97.010 145.676,96.742 145.409 C 96.657 145.323,96.156 146.007,95.630 146.927 M157.015 146.424 C 157.296 146.879,158.400 146.927,158.400 146.485 C 158.400 146.312,158.036 146.143,157.591 146.109 C 157.147 146.076,156.887 146.218,157.015 146.424 M99.555 147.500 C 98.210 148.987,97.460 150.000,97.703 150.000 C 97.813 150.000,98.567 149.190,99.379 148.200 C 101.006 146.214,101.117 145.772,99.555 147.500 M51.293 150.000 C 51.293 150.770,51.375 151.085,51.476 150.700 C 51.576 150.315,51.576 149.685,51.476 149.300 C 51.375 148.915,51.293 149.230,51.293 150.000 M94.979 153.300 C 91.872 157.198,91.727 157.397,92.211 157.108 C 92.689 156.823,97.715 150.400,97.461 150.400 C 97.367 150.400,96.250 151.705,94.979 153.300 M59.649 151.800 C 59.616 152.240,59.496 153.050,59.383 153.600 L 59.177 154.600 59.606 153.619 C 59.842 153.079,59.961 152.269,59.872 151.819 C 59.713 151.021,59.707 151.021,59.649 151.800 M87.968 157.100 C 85.937 159.685,84.006 162.115,83.676 162.500 C 83.346 162.885,83.178 163.200,83.302 163.200 C 83.426 163.200,85.197 161.085,87.238 158.500 C 89.279 155.915,91.213 153.485,91.537 153.100 C 91.860 152.715,92.019 152.400,91.892 152.400 C 91.764 152.400,89.998 154.515,87.968 157.100 M48.771 156.355 C 47.985 157.370,45.600 159.434,43.471 160.942 C 39.149 164.003,38.231 164.948,42.100 162.353 C 45.399 160.141,48.569 157.449,49.630 155.957 C 51.007 154.024,50.335 154.334,48.771 156.355 M58.200 156.000 C 57.859 156.660,57.669 157.200,57.779 157.200 C 57.889 157.200,58.259 156.660,58.600 156.000 C 58.941 155.340,59.131 154.800,59.021 154.800 C 58.911 154.800,58.541 155.340,58.200 156.000 M178.076 157.140 C 177.568 157.283,179.154 157.400,181.600 157.400 C 184.046 157.400,185.632 157.283,185.124 157.140 C 184.616 156.997,183.030 156.880,181.600 156.880 C 180.170 156.880,178.584 156.997,178.076 157.140 M217.276 157.140 C 216.768 157.283,218.442 157.400,220.997 157.400 C 223.551 157.400,225.227 157.283,224.721 157.140 C 224.214 156.997,222.540 156.880,221.000 156.880 C 219.460 156.880,217.784 156.997,217.276 157.140 M268.828 157.500 C 268.844 157.885,269.026 158.560,269.234 159.000 C 269.537 159.641,269.567 159.569,269.383 158.638 C 269.237 157.898,269.344 157.355,269.677 157.144 C 270.069 156.895,270.025 156.811,269.500 156.806 C 269.087 156.803,268.812 157.087,268.828 157.500 M277.529 157.148 C 277.889 157.376,277.988 157.982,277.838 159.042 C 277.668 160.244,277.698 160.372,277.969 159.600 C 278.573 157.880,278.469 156.799,277.700 156.806 C 277.169 156.811,277.127 156.893,277.529 157.148 M293.887 157.100 C 293.798 157.265,293.846 157.850,293.992 158.400 C 294.248 159.359,294.266 159.347,294.460 158.100 C 294.641 156.931,294.298 156.332,293.887 157.100 M329.600 157.193 C 328.909 157.410,329.371 157.490,331.096 157.453 C 332.469 157.424,333.594 157.265,333.596 157.100 C 333.601 156.718,330.915 156.781,329.600 157.193 M353.276 157.140 C 352.768 157.283,354.354 157.400,356.800 157.400 C 359.246 157.400,360.832 157.283,360.324 157.140 C 359.816 156.997,358.230 156.880,356.800 156.880 C 355.370 156.880,353.784 156.997,353.276 157.140 M56.660 158.188 C 56.470 158.684,54.124 160.544,50.952 162.715 C 50.538 162.998,50.972 162.826,51.916 162.332 C 53.815 161.339,58.065 157.647,57.343 157.618 C 57.091 157.608,56.784 157.865,56.660 158.188 M175.200 158.000 C 174.667 158.345,174.667 158.388,175.200 158.388 C 175.530 158.388,176.070 158.213,176.400 158.000 C 176.933 157.655,176.933 157.612,176.400 157.612 C 176.070 157.612,175.530 157.787,175.200 158.000 M188.991 158.754 C 190.306 159.413,191.449 159.885,191.530 159.804 C 191.724 159.609,188.875 158.178,187.600 157.830 C 187.050 157.680,187.676 158.096,188.991 158.754 M212.941 158.824 C 210.340 160.184,207.345 162.912,206.269 164.900 C 205.621 166.097,205.620 166.121,206.260 165.200 C 207.816 162.960,211.224 160.033,213.637 158.863 C 215.047 158.180,215.993 157.616,215.741 157.610 C 215.488 157.605,214.228 158.151,212.941 158.824 M350.400 158.000 C 349.867 158.345,349.867 158.388,350.400 158.388 C 350.730 158.388,351.270 158.213,351.600 158.000 C 352.133 157.655,352.133 157.612,351.600 157.612 C 351.270 157.612,350.730 157.787,350.400 158.000 M364.191 158.754 C 365.506 159.413,366.649 159.885,366.730 159.804 C 366.924 159.609,364.075 158.178,362.800 157.830 C 362.250 157.680,362.876 158.096,364.191 158.754 M228.400 158.579 C 228.400 158.689,228.961 159.069,229.646 159.424 C 232.953 161.134,235.022 163.943,233.900 165.201 C 233.475 165.678,233.504 165.682,234.100 165.232 C 235.235 164.373,234.920 163.422,232.863 161.498 C 231.105 159.853,228.400 158.085,228.400 158.579 M302.656 159.284 C 302.521 159.788,302.427 160.560,302.446 161.000 C 302.465 161.440,302.645 161.098,302.846 160.240 C 303.236 158.578,303.070 157.740,302.656 159.284 M309.873 160.000 C 310.004 160.990,310.176 161.875,310.256 161.967 C 310.557 162.314,310.328 159.764,309.990 159.000 C 309.753 158.466,309.714 158.798,309.873 160.000 M316.868 158.800 C 316.888 159.839,317.518 161.546,317.532 160.600 C 317.538 160.160,317.389 159.440,317.200 159.000 C 316.989 158.510,316.861 158.432,316.868 158.800 M170.806 160.550 C 169.208 161.815,166.395 165.015,166.404 165.556 C 166.407 165.690,166.900 165.170,167.500 164.400 C 168.101 163.630,168.954 162.638,169.396 162.196 C 169.838 161.754,170.830 160.901,171.600 160.300 C 172.370 159.700,172.890 159.207,172.756 159.204 C 172.622 159.202,171.745 159.808,170.806 160.550 M346.006 160.550 C 344.408 161.815,341.595 165.015,341.604 165.556 C 341.607 165.690,342.100 165.170,342.700 164.400 C 344.077 162.635,345.035 161.677,346.800 160.300 C 347.570 159.700,348.090 159.207,347.956 159.204 C 347.822 159.202,346.945 159.808,346.006 160.550 M294.731 171.367 L 294.863 183.147 293.631 183.784 C 292.954 184.134,292.400 184.522,292.400 184.647 C 292.400 184.772,292.985 184.532,293.700 184.115 L 295.000 183.356 295.107 172.659 C 295.165 166.776,295.075 161.428,294.907 160.775 C 294.738 160.122,294.659 164.889,294.731 171.367 M192.034 160.300 C 192.052 160.465,192.817 161.222,193.734 161.982 L 195.400 163.363 193.819 161.682 C 192.193 159.952,191.976 159.784,192.034 160.300 M367.234 160.300 C 367.252 160.465,368.017 161.222,368.934 161.982 L 370.600 163.363 369.019 161.682 C 367.393 159.952,367.176 159.784,367.234 160.300 M269.910 171.635 C 269.971 177.886,270.076 183.630,270.143 184.400 C 270.210 185.170,270.285 180.760,270.310 174.600 C 270.334 168.440,270.229 162.696,270.077 161.835 C 269.925 160.975,269.850 165.385,269.910 171.635 M174.700 161.429 C 174.095 161.757,173.600 162.116,173.600 162.227 C 173.600 162.338,173.994 162.217,174.477 161.959 C 174.959 161.701,175.814 161.350,176.377 161.179 C 177.177 160.936,177.226 160.865,176.600 160.850 C 176.160 160.840,175.305 161.101,174.700 161.429 M181.086 161.380 C 189.186 163.912,193.225 173.504,187.234 175.986 C 186.541 176.273,186.053 176.587,186.150 176.683 C 187.247 177.781,190.396 173.787,190.399 171.296 C 190.402 166.968,184.307 160.713,180.200 160.831 C 179.760 160.843,180.159 161.091,181.086 161.380 M214.200 161.264 C 213.104 161.866,210.400 164.477,210.400 164.933 C 210.400 165.136,211.075 164.550,211.900 163.630 C 212.737 162.696,214.107 161.709,215.000 161.396 C 215.880 161.088,216.240 160.833,215.800 160.830 C 215.360 160.827,214.640 161.022,214.200 161.264 M218.833 160.944 C 218.925 161.023,219.540 161.208,220.200 161.356 C 221.076 161.552,221.238 161.515,220.800 161.218 C 220.260 160.853,218.432 160.598,218.833 160.944 M319.425 161.580 C 318.779 162.006,318.076 162.247,317.863 162.115 C 317.650 161.984,317.605 162.084,317.762 162.339 C 318.064 162.828,318.711 162.589,320.200 161.442 C 321.335 160.567,320.823 160.658,319.425 161.580 M349.900 161.429 C 349.295 161.757,348.800 162.116,348.800 162.227 C 348.800 162.338,349.194 162.217,349.677 161.959 C 350.159 161.701,351.014 161.350,351.577 161.179 C 352.377 160.936,352.426 160.865,351.800 160.850 C 351.360 160.840,350.505 161.101,349.900 161.429 M356.286 161.380 C 364.386 163.912,368.425 173.504,362.434 175.986 C 361.741 176.273,361.253 176.587,361.350 176.683 C 362.447 177.781,365.596 173.787,365.599 171.296 C 365.602 166.968,359.507 160.713,355.400 160.831 C 354.960 160.843,355.359 161.091,356.286 161.380 M223.222 162.739 C 225.133 163.962,226.888 165.982,228.398 168.696 C 228.918 169.628,229.408 170.326,229.487 170.246 C 230.075 169.658,224.941 163.100,223.180 162.190 C 221.299 161.217,221.322 161.522,223.222 162.739 M277.376 172.600 C 277.376 178.760,277.432 181.224,277.499 178.076 C 277.567 174.927,277.567 169.887,277.499 166.876 C 277.431 163.864,277.376 166.440,277.376 172.600 M92.800 162.950 C 92.800 163.241,94.871 166.800,95.041 166.800 C 95.136 166.800,94.757 165.900,94.200 164.800 C 93.331 163.086,92.800 162.383,92.800 162.950 M325.907 163.090 C 326.626 163.179,327.706 163.177,328.307 163.086 C 328.908 162.995,328.320 162.922,327.000 162.924 C 325.680 162.926,325.188 163.001,325.907 163.090 M322.000 163.618 C 321.562 163.915,321.724 163.952,322.600 163.756 C 324.071 163.427,324.390 163.198,323.367 163.206 C 322.945 163.209,322.330 163.395,322.000 163.618 M330.800 163.600 C 331.350 163.776,332.250 163.917,332.800 163.913 C 333.698 163.906,333.678 163.874,332.600 163.600 C 330.908 163.169,329.456 163.169,330.800 163.600 M81.460 165.293 C 80.686 166.225,80.131 167.065,80.227 167.160 C 80.322 167.255,80.447 167.258,80.504 167.167 C 80.561 167.075,81.200 166.235,81.923 165.300 C 83.625 163.099,83.286 163.095,81.460 165.293 M302.176 174.600 C 302.176 180.760,302.232 183.224,302.299 180.076 C 302.367 176.927,302.367 171.887,302.299 168.876 C 302.231 165.864,302.176 168.440,302.176 174.600 M47.100 164.629 C 45.854 165.305,45.731 165.902,46.607 167.024 C 47.163 167.736,47.172 167.704,46.711 166.632 C 46.357 165.807,46.338 165.421,46.648 165.317 C 47.167 165.144,48.690 164.024,48.400 164.029 C 48.290 164.031,47.705 164.301,47.100 164.629 M319.100 164.827 L 317.600 165.619 317.640 176.710 C 317.662 182.809,317.797 188.218,317.940 188.729 C 318.083 189.240,318.143 184.286,318.074 177.721 L 317.948 165.783 319.674 164.916 C 320.623 164.440,321.220 164.046,321.000 164.042 C 320.780 164.039,319.925 164.392,319.100 164.827 M232.729 166.700 C 231.688 167.924,230.228 170.154,230.630 169.905 C 231.077 169.629,233.732 166.000,233.487 166.000 C 233.397 166.000,233.056 166.315,232.729 166.700 M83.970 167.500 L 83.000 168.600 84.030 167.696 C 84.596 167.199,85.210 166.929,85.394 167.096 C 85.578 167.263,85.599 167.175,85.441 166.900 C 85.062 166.242,85.088 166.231,83.970 167.500 M197.000 170.000 C 197.000 171.964,197.122 173.262,197.272 172.885 C 197.421 172.508,197.544 171.210,197.544 170.000 C 197.544 168.790,197.421 167.492,197.272 167.115 C 197.122 166.738,197.000 168.036,197.000 170.000 M372.200 170.000 C 372.200 171.964,372.322 173.262,372.472 172.885 C 372.621 172.508,372.744 171.210,372.744 170.000 C 372.744 168.790,372.621 167.492,372.472 167.115 C 372.322 166.738,372.200 168.036,372.200 170.000 M169.824 169.300 C 169.700 170.235,169.755 171.630,169.944 172.400 C 170.228 173.551,170.289 173.248,170.285 170.700 C 170.280 167.204,170.153 166.817,169.824 169.300 M345.024 169.300 C 344.900 170.235,344.955 171.630,345.144 172.400 C 345.428 173.551,345.489 173.248,345.485 170.700 C 345.480 167.204,345.353 166.817,345.024 169.300 M204.200 168.800 C 204.050 169.273,204.017 169.750,204.127 169.860 C 204.237 169.970,204.450 169.673,204.600 169.200 C 204.750 168.727,204.783 168.250,204.673 168.140 C 204.563 168.030,204.350 168.327,204.200 168.800 M81.277 170.663 C 80.549 171.660,80.131 172.366,80.348 172.232 C 80.992 171.834,83.296 168.798,82.934 168.825 C 82.750 168.838,82.005 169.665,81.277 170.663 M96.006 168.850 C 95.997 169.205,98.033 172.800,98.242 172.800 C 98.338 172.800,98.060 172.125,97.624 171.300 C 96.678 169.511,96.015 168.506,96.006 168.850 M209.309 170.400 C 209.309 171.390,209.387 171.795,209.482 171.300 C 209.578 170.805,209.578 169.995,209.482 169.500 C 209.387 169.005,209.309 169.410,209.309 170.400 M87.400 171.200 C 87.957 172.300,88.503 173.200,88.613 173.200 C 88.723 173.200,88.357 172.300,87.800 171.200 C 87.243 170.100,86.697 169.200,86.587 169.200 C 86.477 169.200,86.843 170.100,87.400 171.200 M36.603 170.513 C 33.986 172.452,31.206 176.433,31.236 178.200 C 31.243 178.640,31.544 178.100,31.905 177.000 C 32.549 175.036,36.902 170.000,37.956 170.000 C 38.193 170.000,38.852 170.918,39.420 172.040 C 39.989 173.162,40.539 173.994,40.644 173.889 C 40.900 173.634,38.684 169.891,38.190 169.743 C 37.975 169.679,37.261 170.026,36.603 170.513 M48.000 169.750 C 48.000 170.041,50.071 173.600,50.241 173.600 C 50.336 173.600,49.957 172.700,49.400 171.600 C 48.531 169.886,48.000 169.183,48.000 169.750 M164.269 170.756 C 164.121 171.495,164.020 172.483,164.044 172.950 C 164.068 173.418,164.247 172.990,164.442 172.000 C 164.637 171.010,164.738 170.023,164.667 169.806 C 164.596 169.590,164.417 170.017,164.269 170.756 M339.469 170.756 C 339.321 171.495,339.220 172.483,339.244 172.950 C 339.268 173.418,339.447 172.990,339.642 172.000 C 339.837 171.010,339.938 170.023,339.867 169.806 C 339.796 169.590,339.617 170.017,339.469 170.756 M203.416 172.900 C 203.279 174.275,203.316 176.210,203.498 177.200 C 203.763 178.645,203.828 178.153,203.831 174.700 C 203.834 169.746,203.760 169.427,203.416 172.900 M78.034 174.852 L 76.400 176.905 76.477 181.952 L 76.554 187.000 76.777 181.787 L 77.000 176.574 78.548 174.687 C 79.400 173.649,80.000 172.800,79.882 172.800 C 79.764 172.800,78.933 173.724,78.034 174.852 M209.606 173.833 C 209.609 174.255,209.795 174.870,210.018 175.200 C 210.315 175.638,210.352 175.476,210.156 174.600 C 209.827 173.129,209.598 172.810,209.606 173.833 M170.406 174.633 C 170.409 175.055,170.595 175.670,170.818 176.000 C 171.115 176.438,171.152 176.276,170.956 175.400 C 170.627 173.929,170.398 173.610,170.406 174.633 M195.120 175.758 C 194.306 176.711,193.001 177.793,192.220 178.164 C 190.578 178.943,190.313 179.365,191.827 178.790 C 193.387 178.197,195.316 176.597,196.123 175.227 C 197.089 173.586,196.883 173.696,195.120 175.758 M345.606 174.633 C 345.609 175.055,345.795 175.670,346.018 176.000 C 346.315 176.438,346.352 176.276,346.156 175.400 C 345.827 173.929,345.598 173.610,345.606 174.633 M370.320 175.758 C 369.506 176.711,368.201 177.793,367.420 178.164 C 365.778 178.943,365.513 179.365,367.027 178.790 C 368.587 178.197,370.516 176.597,371.323 175.227 C 372.289 173.586,372.083 173.696,370.320 175.758 M91.034 178.011 C 91.846 179.557,92.573 180.761,92.648 180.685 C 92.822 180.512,90.016 175.200,89.751 175.200 C 89.644 175.200,90.221 176.465,91.034 178.011 M52.200 177.600 C 52.757 178.700,53.303 179.600,53.413 179.600 C 53.523 179.600,53.157 178.700,52.600 177.600 C 52.043 176.500,51.497 175.600,51.387 175.600 C 51.277 175.600,51.643 176.500,52.200 177.600 M164.028 176.633 C 164.044 177.275,164.216 178.160,164.410 178.600 C 164.647 179.134,164.686 178.802,164.527 177.600 C 164.246 175.480,163.988 174.980,164.028 176.633 M339.228 176.633 C 339.244 177.275,339.416 178.160,339.610 178.600 C 339.847 179.134,339.886 178.802,339.727 177.600 C 339.446 175.480,339.188 174.980,339.228 176.633 M43.002 178.711 C 43.832 180.312,44.583 181.551,44.670 181.463 C 44.855 181.279,42.490 176.798,41.893 176.200 C 41.673 175.980,42.173 177.110,43.002 178.711 M210.400 176.344 C 210.400 177.504,212.936 181.564,214.709 183.240 L 216.571 185.000 214.667 182.898 C 213.621 181.742,212.232 179.672,211.582 178.298 C 210.932 176.924,210.400 176.045,210.400 176.344 M100.600 177.600 C 100.941 178.260,101.311 178.800,101.421 178.800 C 101.531 178.800,101.341 178.260,101.000 177.600 C 100.659 176.940,100.289 176.400,100.179 176.400 C 100.069 176.400,100.259 176.940,100.600 177.600 M171.207 176.913 C 171.161 178.898,175.073 183.577,175.797 182.405 C 175.932 182.187,175.796 182.103,175.496 182.219 C 174.797 182.487,173.917 181.503,172.414 178.776 C 171.754 177.579,171.211 176.741,171.207 176.913 M346.407 176.913 C 346.361 178.898,350.273 183.577,350.997 182.405 C 351.132 182.187,350.996 182.103,350.696 182.219 C 349.997 182.487,349.117 181.503,347.614 178.776 C 346.954 177.579,346.411 176.741,346.407 176.913 M179.500 179.029 C 177.949 179.870,178.125 180.161,179.700 179.359 C 181.208 178.593,181.475 178.394,180.967 178.416 C 180.765 178.425,180.105 178.701,179.500 179.029 M354.700 179.029 C 353.149 179.870,353.325 180.161,354.900 179.359 C 356.408 178.593,356.675 178.394,356.167 178.416 C 355.965 178.425,355.305 178.701,354.700 179.029 M188.200 179.600 C 187.696 179.817,187.622 179.944,188.000 179.944 C 188.330 179.944,188.960 179.789,189.400 179.600 C 189.904 179.383,189.978 179.256,189.600 179.256 C 189.270 179.256,188.640 179.411,188.200 179.600 M363.400 179.600 C 362.896 179.817,362.822 179.944,363.200 179.944 C 363.530 179.944,364.160 179.789,364.600 179.600 C 365.104 179.383,365.178 179.256,364.800 179.256 C 364.470 179.256,363.840 179.411,363.400 179.600 M53.606 180.050 C 53.597 180.405,55.633 184.000,55.842 184.000 C 55.938 184.000,55.660 183.325,55.224 182.500 C 54.278 180.711,53.615 179.706,53.606 180.050 M185.000 180.400 C 183.981 180.838,185.032 180.838,186.400 180.400 C 187.204 180.143,187.243 180.077,186.600 180.068 C 186.160 180.062,185.440 180.211,185.000 180.400 M360.200 180.400 C 359.181 180.838,360.232 180.838,361.600 180.400 C 362.404 180.143,362.443 180.077,361.800 180.068 C 361.360 180.062,360.640 180.211,360.200 180.400 M30.901 181.800 C 30.905 182.680,30.987 182.993,31.083 182.495 C 31.179 181.998,31.175 181.278,31.075 180.895 C 30.975 180.513,30.896 180.920,30.901 181.800 M102.400 180.890 C 102.400 181.281,105.203 186.000,105.436 186.000 C 105.545 186.000,105.143 185.145,104.544 184.100 C 103.156 181.682,102.400 180.549,102.400 180.890 M196.819 181.635 C 197.428 182.773,195.062 186.353,192.535 188.121 C 189.647 190.141,189.264 190.530,191.151 189.529 C 195.180 187.391,199.273 180.800,196.572 180.800 C 196.462 180.800,196.573 181.176,196.819 181.635 M372.019 181.635 C 372.628 182.773,370.262 186.353,367.735 188.121 C 364.847 190.141,364.464 190.530,366.351 189.529 C 370.380 187.391,374.473 180.800,371.772 180.800 C 371.662 180.800,371.773 181.176,372.019 181.635 M94.685 184.984 C 95.719 187.066,96.629 188.704,96.707 188.626 C 96.885 188.449,93.265 181.200,92.999 181.200 C 92.892 181.200,93.651 182.903,94.685 184.984 M236.265 181.926 C 236.570 183.092,235.213 185.141,232.482 187.642 C 231.227 188.790,230.578 189.529,231.040 189.283 C 233.717 187.858,237.462 182.502,236.473 181.513 C 236.169 181.209,236.108 181.328,236.265 181.926 M194.053 182.813 C 193.560 183.481,192.419 184.561,191.518 185.213 C 190.617 185.866,190.062 186.400,190.284 186.400 C 190.836 186.400,194.319 183.298,194.822 182.359 C 195.427 181.228,195.069 181.440,194.053 182.813 M369.253 182.813 C 368.760 183.481,367.619 184.561,366.718 185.213 C 365.817 185.866,365.262 186.400,365.484 186.400 C 366.036 186.400,369.519 183.298,370.022 182.359 C 370.627 181.228,370.269 181.440,369.253 182.813 M45.800 184.000 C 46.357 185.100,46.903 186.000,47.013 186.000 C 47.123 186.000,46.757 185.100,46.200 184.000 C 45.643 182.900,45.097 182.000,44.987 182.000 C 44.877 182.000,45.243 182.900,45.800 184.000 M166.200 183.200 C 166.541 183.860,166.911 184.400,167.021 184.400 C 167.131 184.400,166.941 183.860,166.600 183.200 C 166.259 182.540,165.889 182.000,165.779 182.000 C 165.669 182.000,165.859 182.540,166.200 183.200 M232.913 183.565 C 232.205 184.418,230.685 185.585,229.534 186.158 C 228.384 186.731,227.703 187.199,228.021 187.199 C 229.289 187.195,233.189 184.284,234.048 182.700 C 234.627 181.633,234.326 181.863,232.913 183.565 M341.400 183.200 C 341.741 183.860,342.111 184.400,342.221 184.400 C 342.331 184.400,342.141 183.860,341.800 183.200 C 341.459 182.540,341.089 182.000,340.979 182.000 C 340.869 182.000,341.059 182.540,341.400 183.200 M178.662 183.131 C 177.760 184.128,177.831 184.933,178.900 185.838 C 179.799 186.599,179.799 186.599,179.100 185.769 C 178.226 184.730,178.216 184.066,179.062 183.131 C 179.426 182.729,179.634 182.400,179.524 182.400 C 179.414 182.400,179.026 182.729,178.662 183.131 M353.862 183.131 C 352.960 184.128,353.031 184.933,354.100 185.838 C 354.999 186.599,354.999 186.599,354.300 185.769 C 353.426 184.730,353.416 184.066,354.262 183.131 C 354.626 182.729,354.834 182.400,354.724 182.400 C 354.614 182.400,354.226 182.729,353.862 183.131 M206.011 183.986 C 206.735 185.387,210.413 188.979,211.925 189.761 C 213.791 190.726,213.482 190.317,211.253 188.873 C 210.182 188.179,208.621 186.754,207.784 185.706 C 205.734 183.137,205.411 182.824,206.011 183.986 M56.392 185.151 C 57.202 186.721,60.800 192.128,60.800 191.775 C 60.800 191.594,59.866 189.996,58.724 188.223 C 56.541 184.834,55.568 183.552,56.392 185.151 M277.602 184.869 C 277.598 185.974,279.924 188.006,281.131 187.953 L 282.200 187.905 281.200 187.653 C 279.646 187.260,278.909 186.701,278.231 185.400 C 277.855 184.679,277.604 184.467,277.602 184.869 M168.009 185.775 C 169.959 188.088,174.210 191.201,175.400 191.189 C 175.620 191.187,174.810 190.641,173.600 189.976 C 172.390 189.311,170.414 187.829,169.209 186.683 C 168.003 185.537,167.463 185.129,168.009 185.775 M289.000 186.000 C 287.680 186.626,286.780 187.144,287.000 187.150 C 287.220 187.156,288.480 186.645,289.800 186.015 C 291.120 185.384,292.020 184.867,291.800 184.865 C 291.580 184.863,290.320 185.374,289.000 186.000 M343.209 185.775 C 345.159 188.088,349.410 191.201,350.600 191.189 C 350.820 191.187,350.010 190.641,348.800 189.976 C 347.590 189.311,345.614 187.829,344.409 186.683 C 343.203 185.537,342.663 185.129,343.209 185.775 M22.072 186.450 C 22.032 187.248,21.905 188.508,21.789 189.250 C 21.597 190.485,21.615 190.516,22.008 189.615 C 22.244 189.074,22.371 187.814,22.291 186.815 C 22.162 185.218,22.136 185.175,22.072 186.450 M31.228 187.433 C 31.244 188.295,31.409 189.360,31.596 189.800 C 31.808 190.298,31.851 189.769,31.712 188.400 C 31.444 185.765,31.189 185.257,31.228 187.433 M47.217 186.456 C 47.208 186.597,47.556 187.497,47.991 188.456 C 48.426 189.415,48.779 189.930,48.774 189.600 C 48.767 189.013,47.250 185.951,47.217 186.456 M106.455 187.900 C 108.036 190.479,109.200 192.125,109.200 191.784 C 109.200 191.382,105.980 186.400,105.720 186.400 C 105.618 186.400,105.949 187.075,106.455 187.900 M291.200 188.272 C 289.330 189.268,287.710 190.172,287.600 190.283 C 287.156 190.729,290.594 189.137,292.919 187.819 C 296.483 185.799,295.223 186.131,291.200 188.272 M310.054 187.600 C 310.019 188.150,309.896 189.050,309.783 189.600 L 309.577 190.600 310.007 189.615 C 310.243 189.074,310.365 188.174,310.278 187.615 L 310.120 186.600 310.054 187.600 M183.161 187.702 C 183.945 187.905,185.120 187.901,185.957 187.693 C 187.220 187.378,187.052 187.334,184.604 187.342 C 182.229 187.350,182.011 187.404,183.161 187.702 M223.091 187.489 C 223.801 187.577,225.061 187.579,225.891 187.492 C 226.721 187.405,226.140 187.333,224.600 187.331 C 223.060 187.329,222.381 187.400,223.091 187.489 M284.000 187.600 C 282.616 187.891,282.614 187.895,283.800 187.941 C 284.460 187.967,285.270 187.813,285.600 187.600 C 286.266 187.170,286.045 187.170,284.000 187.600 M358.361 187.702 C 359.145 187.905,360.320 187.901,361.157 187.693 C 362.420 187.378,362.252 187.334,359.804 187.342 C 357.429 187.350,357.211 187.404,358.361 187.702 M302.428 188.433 C 302.444 188.965,302.619 189.760,302.819 190.200 C 303.071 190.758,303.107 190.515,302.938 189.400 C 302.655 187.543,302.387 187.036,302.428 188.433 M131.654 188.667 C 131.625 189.144,131.496 189.864,131.370 190.267 C 131.152 190.961,131.164 190.962,131.596 190.288 C 131.847 189.897,131.975 189.177,131.881 188.688 C 131.709 187.801,131.709 187.801,131.654 188.667 M295.268 188.600 C 295.262 189.040,295.411 189.760,295.600 190.200 C 296.038 191.219,296.038 190.168,295.600 188.800 C 295.343 187.996,295.277 187.957,295.268 188.600 M76.868 189.000 C 76.862 189.440,77.011 190.160,77.200 190.600 C 77.638 191.619,77.638 190.568,77.200 189.200 C 76.943 188.396,76.877 188.357,76.868 189.000 M272.201 189.549 C 273.363 190.856,275.438 192.029,276.487 191.972 C 276.769 191.956,276.283 191.681,275.408 191.361 C 274.532 191.040,273.182 190.198,272.409 189.489 L 271.002 188.200 272.201 189.549 M97.019 190.201 C 97.175 190.860,97.457 191.568,97.645 191.773 C 97.832 191.978,97.815 191.549,97.605 190.819 C 97.118 189.118,96.644 188.619,97.019 190.201 M228.400 190.400 C 227.630 190.822,227.144 191.174,227.320 191.183 C 227.744 191.205,230.000 190.032,230.000 189.790 C 230.000 189.528,229.977 189.537,228.400 190.400 M66.744 190.666 C 66.605 191.143,66.688 191.728,66.926 191.966 C 67.419 192.459,77.040 192.582,77.339 192.100 C 77.442 191.935,75.215 191.855,72.391 191.922 L 67.257 192.044 67.126 190.922 C 67.007 189.909,66.970 189.884,66.744 190.666 M318.446 190.886 L 318.400 191.973 314.100 192.102 L 309.800 192.230 314.113 192.315 C 318.653 192.404,319.120 192.221,318.680 190.523 C 318.556 190.044,318.477 190.167,318.446 190.886 M141.632 191.088 C 141.601 191.951,141.453 191.980,136.500 192.101 L 131.400 192.226 136.513 192.313 C 141.776 192.403,142.465 192.197,141.869 190.713 C 141.756 190.431,141.649 190.600,141.632 191.088 M177.000 191.600 C 177.440 191.789,178.070 191.944,178.400 191.944 C 178.778 191.944,178.704 191.817,178.200 191.600 C 177.760 191.411,177.130 191.256,176.800 191.256 C 176.422 191.256,176.496 191.383,177.000 191.600 M185.400 191.600 C 184.896 191.817,184.822 191.944,185.200 191.944 C 185.530 191.944,186.160 191.789,186.600 191.600 C 187.104 191.383,187.178 191.256,186.800 191.256 C 186.470 191.256,185.840 191.411,185.400 191.600 M216.200 191.600 C 216.640 191.789,217.270 191.944,217.600 191.944 C 217.978 191.944,217.904 191.817,217.400 191.600 C 216.960 191.411,216.330 191.256,216.000 191.256 C 215.622 191.256,215.696 191.383,216.200 191.600 M224.600 191.600 L 223.800 191.944 224.600 191.944 C 225.040 191.944,225.760 191.789,226.200 191.600 L 227.000 191.256 226.200 191.256 C 225.760 191.256,225.040 191.411,224.600 191.600 M283.000 191.600 C 282.496 191.817,282.422 191.944,282.800 191.944 C 283.130 191.944,283.760 191.789,284.200 191.600 C 284.704 191.383,284.778 191.256,284.400 191.256 C 284.070 191.256,283.440 191.411,283.000 191.600 M352.200 191.600 C 352.640 191.789,353.270 191.944,353.600 191.944 C 353.978 191.944,353.904 191.817,353.400 191.600 C 352.960 191.411,352.330 191.256,352.000 191.256 C 351.622 191.256,351.696 191.383,352.200 191.600 M360.600 191.600 C 360.096 191.817,360.022 191.944,360.400 191.944 C 360.730 191.944,361.360 191.789,361.800 191.600 C 362.304 191.383,362.378 191.256,362.000 191.256 C 361.670 191.256,361.040 191.411,360.600 191.600 M24.300 192.296 C 25.675 192.374,27.925 192.374,29.300 192.296 C 30.675 192.218,29.550 192.154,26.800 192.154 C 24.050 192.154,22.925 192.218,24.300 192.296 M52.517 192.297 C 54.011 192.374,56.351 192.374,57.717 192.296 C 59.082 192.218,57.860 192.155,55.000 192.155 C 52.140 192.156,51.022 192.220,52.517 192.297 M100.917 192.297 C 102.411 192.374,104.751 192.374,106.117 192.296 C 107.482 192.218,106.260 192.155,103.400 192.155 C 100.540 192.156,99.422 192.220,100.917 192.297 M181.100 192.282 C 181.595 192.378,182.405 192.378,182.900 192.282 C 183.395 192.187,182.990 192.109,182.000 192.109 C 181.010 192.109,180.605 192.187,181.100 192.282 M220.300 192.282 C 220.795 192.378,221.605 192.378,222.100 192.282 C 222.595 192.187,222.190 192.109,221.200 192.109 C 220.210 192.109,219.805 192.187,220.300 192.282 M278.505 192.287 C 279.114 192.379,280.014 192.377,280.505 192.282 C 280.997 192.187,280.500 192.111,279.400 192.114 C 278.300 192.117,277.897 192.195,278.505 192.287 M298.311 192.293 C 299.251 192.378,300.691 192.377,301.511 192.291 C 302.330 192.205,301.560 192.136,299.800 192.137 C 298.040 192.139,297.370 192.209,298.311 192.293 M356.300 192.282 C 356.795 192.378,357.605 192.378,358.100 192.282 C 358.595 192.187,358.190 192.109,357.200 192.109 C 356.210 192.109,355.805 192.187,356.300 192.282 " stroke="none" fill="#9d9d9d" fill-rule="evenodd"></path></g></svg>